# xmcd CD database file
#
# Track frame offsets:
#	150
#	14394
#	25356
#	39616
#	54404
#	69893
#	81355
#	95283
#	108983
#	119288
#	131827
#	145766
#	156947
#	170078
#	183084
#	196745
#	211228
#	224630
#	239026
#	253961
#	265825
#	278501
#	291828
#	307597
#	318804
#
# Disc length: 4426 seconds
#
# Revision: 0
# Processed by: cddbd v1.5.1PL0 Copyright (c) Steve Scherf et al.
# Submitted via: CDex 1.51
#
DISCID=69114819
DTITLE=Count Basie - Complete 1941-1951 Columbia Recordings [CD3] [Defifnitive #11209, 2001]
DYEAR=1946
DGENRE=Jazz
TTITLE0=The King
TTITLE1=Hob Nail Boogie
TTITLE2=Danny Boy
TTITLE3=Mutton Leg
TTITLE4=Stay On It
TTITLE5=Wild Bill's Boogie
TTITLE6=Fla-Ga-La-Pa
TTITLE7=Don't Ever Let Me Be Yours
TTITLE8=Goodbye, Baby
TTITLE9=Neal's Deal
TTITLE10=Bluebeard Blues
TTITLE11=Golden Bullet
TTITLE12=You're My Baby, You
TTITLE13=Song of the Islands
TTITLE14=These Foolish Things
TTITLE15=I'm Confessin'
TTITLE16=One O'Clock Jump
TTITLE17=I Ain't Got Nobody
TTITLE18=Little White Lies
TTITLE19=I'll Remember April
TTITLE20=Tootie
TTITLE21=Howzit
TTITLE22=Nails
TTITLE23=Little Pony
TTITLE24=Beaver Junction
EXTD=YEAR: 1946
EXTT0=
EXTT1=
EXTT2=
EXTT3=
EXTT4=
EXTT5=
EXTT6=
EXTT7=
EXTT8=
EXTT9=
EXTT10=
EXTT11=
EXTT12=
EXTT13=
EXTT14=
EXTT15=
EXTT16=
EXTT17=
EXTT18=
EXTT19=
EXTT20=
EXTT21=
EXTT22=
EXTT23=
EXTT24=
PLAYORDER=
